<?xml version="1.0" standalone="no"?>
<!DOCTYPE svg PUBLIC "-//W3C//DTD SVG 20010904//EN"
 "http://www.w3.org/TR/2001/REC-SVG-20010904/DTD/svg10.dtd">
<svg version="1.0" xmlns="http://www.w3.org/2000/svg"
 width="804.000000pt" height="804.000000pt" viewBox="0 0 804.000000 804.000000"
 preserveAspectRatio="xMidYMid meet">
<metadata>
Created by potrace 1.11, written by Peter Selinger 2001-2013
</metadata>
<g transform="translate(0.000000,804.000000) scale(0.100000,-0.100000)"
fill="#000000" stroke="none">
<path d="M3740 8032 c-55 -4 -273 -43 -395 -72 -166 -39 -391 -140 -520 -233
-65 -47 -194 -173 -195 -189 0 -4 -13 -26 -29 -50 -55 -83 -106 -252 -116
-383 -5 -79 -18 -331 -18 -375 -1 -19 -5 -38 -10 -41 -5 -4 -11 -26 -13 -49
-1 -23 -5 -44 -7 -47 -6 -5 -118 20 -322 73 -301 78 -347 88 -364 77 -26 -16
-41 -73 -35 -133 8 -79 50 -126 156 -178 79 -38 385 -147 445 -158 15 -3 29
-7 31 -9 2 -2 -25 -43 -60 -92 -129 -179 -247 -389 -329 -588 -27 -66 -54
-129 -59 -140 -7 -16 -19 -50 -25 -75 -1 -3 -4 -12 -8 -20 -21 -54 -67 -208
-67 -225 0 -28 -13 -11 -58 77 -76 147 -180 257 -301 318 -68 34 -89 40 -161
44 -104 6 -244 -63 -358 -176 -247 -246 -294 -735 -105 -1093 103 -194 351
-415 610 -542 116 -57 144 -67 196 -69 67 -3 62 4 73 -94 3 -30 8 -58 10 -62
2 -4 -38 -71 -89 -150 -52 -79 -156 -242 -232 -363 -207 -330 -216 -343 -307
-436 -145 -151 -187 -201 -244 -299 -21 -36 -44 -72 -53 -80 -20 -20 -114
-166 -138 -216 -43 -84 -37 -138 15 -132 21 2 39 21 84 88 52 78 88 110 88 79
0 -11 -74 -155 -104 -202 -25 -38 -39 -107 -25 -123 12 -15 56 -19 76 -6 11 7
64 88 123 190 20 35 37 52 50 52 11 0 20 -5 20 -10 0 -6 -22 -57 -50 -113 -64
-132 -65 -187 -4 -187 26 0 76 58 116 135 14 28 47 91 72 140 63 121 71 129
79 71 12 -85 49 -131 97 -119 28 7 60 76 53 112 -10 51 -6 237 6 321 28 185
62 256 280 584 47 70 95 143 106 162 11 18 30 46 41 61 l22 28 11 -45 c27
-103 98 -304 153 -435 157 -374 361 -681 624 -940 l101 -100 -47 -1 c-26 -1
-61 -9 -76 -17 -16 -9 -40 -21 -53 -27 -13 -6 -50 -36 -83 -68 -96 -92 -149
-142 -242 -227 -49 -44 -116 -107 -151 -140 -35 -33 -76 -72 -91 -87 -74 -69
-124 -127 -124 -145 0 -13 -13 -25 -40 -37 -22 -10 -40 -23 -40 -30 0 -8 -88
-43 -225 -89 -237 -81 -288 -106 -326 -159 -13 -18 -32 -41 -41 -50 -10 -10
-19 -26 -19 -35 -6 -69 -4 -93 6 -128 6 -22 10 -53 8 -69 -12 -85 81 -193 193
-225 57 -17 232 -23 649 -24 353 -1 374 0 453 21 147 40 204 66 289 131 l82
63 258 -5 c275 -5 350 2 526 45 63 15 103 32 131 53 44 34 43 28 32 150 -4 33
-8 85 -11 115 -3 30 -8 69 -11 85 -3 17 -8 43 -11 59 -2 15 -16 62 -29 103
-25 77 -29 99 -38 191 -3 29 -8 57 -12 63 -3 6 12 8 43 5 205 -22 249 -23 408
-12 109 8 123 10 179 22 l28 6 -6 -78 c-4 -44 -15 -104 -26 -135 -11 -31 -21
-67 -24 -80 -3 -13 -10 -49 -16 -79 -11 -58 -20 -134 -25 -210 -1 -25 -6 -66
-10 -91 -6 -43 -5 -47 28 -76 32 -28 149 -68 229 -78 15 -2 43 -8 61 -13 17
-5 150 -8 293 -6 l261 3 67 -68 c52 -55 80 -75 134 -96 129 -52 167 -55 667
-50 552 5 576 7 627 63 48 51 61 82 70 165 20 173 16 209 -31 262 -14 17 -35
43 -46 59 -11 15 -45 40 -75 55 -54 27 -78 37 -250 101 -107 41 -140 57 -140
73 0 6 -18 22 -40 35 -22 13 -38 27 -35 32 3 4 -11 27 -30 50 -19 23 -35 47
-35 53 0 7 -32 43 -71 82 -38 38 -167 167 -284 287 -212 214 -225 224 -308
242 -27 6 -27 6 40 74 59 59 94 97 172 187 86 99 238 331 325 497 50 95 164
346 170 373 1 6 19 64 40 129 36 110 40 118 54 100 35 -47 318 -488 366 -569
91 -153 110 -207 132 -375 3 -25 10 -63 15 -85 4 -22 9 -80 9 -128 0 -101 17
-151 55 -169 22 -10 30 -8 52 8 15 11 32 35 38 53 l10 32 29 -53 c136 -254
211 -335 253 -272 21 32 9 70 -58 185 -29 52 -44 88 -39 93 14 14 44 -17 112
-120 68 -103 109 -135 146 -115 33 17 28 57 -17 131 -79 131 -111 187 -111
198 0 31 34 5 92 -70 68 -87 97 -107 123 -82 36 37 10 94 -127 278 -33 44 -73
106 -88 136 -36 72 -100 157 -186 249 -138 148 -159 177 -319 436 -124 200
-135 218 -261 413 -154 238 -145 220 -139 287 3 33 11 89 16 125 16 92 25 183
28 268 1 29 4 32 32 32 79 0 298 113 454 235 108 85 265 241 265 264 0 5 6 14
13 18 22 14 85 126 117 208 16 41 49 166 56 212 10 68 12 267 3 328 -32 213
-131 389 -288 509 -214 165 -411 144 -610 -63 -74 -78 -191 -276 -191 -325 0
-18 -16 -31 -17 -13 -1 16 -85 249 -114 317 -105 241 -257 506 -379 660 -11
14 -20 28 -20 31 0 3 26 12 57 19 94 21 342 108 429 151 102 50 151 98 163
162 10 56 -6 135 -31 151 -14 8 -110 -9 -208 -39 -31 -9 -406 -105 -427 -109
-13 -3 -27 -7 -32 -11 -14 -8 -31 28 -31 66 0 17 -6 37 -14 43 -11 8 -16 48
-21 161 -10 234 -14 286 -31 380 -8 49 -57 189 -71 206 -7 8 -13 18 -13 22 0
15 -63 103 -107 150 -80 85 -158 142 -283 209 -87 47 -250 115 -295 124 -6 1
-49 11 -95 22 -75 18 -112 25 -195 38 -11 2 -49 8 -85 14 -61 11 -400 19 -500
12z"/>
</g>
</svg>
